<svg width="103" height="31" viewBox="0 0 103 31" fill="none" xmlns="http://www.w3.org/2000/svg">
<path d="M23.9321 24.7113L19.8705 18.3933C19.76 18.2215 19.5223 18.1889 19.3696 18.3246L15.3081 21.9349C15.1168 22.1049 15.1811 22.4182 15.4239 22.4991L23.547 25.2068C23.8449 25.3061 24.1018 24.9754 23.9321 24.7113Z" fill="#2EADF4"/>
<path d="M-6.01962e-05 12.2213C-6.07863e-05 18.971 5.47161 24.4426 12.2213 24.4426C18.9709 24.4426 24.4426 18.971 24.4426 12.2213C24.4426 5.47167 18.9709 -4.78348e-07 12.2213 -1.06842e-06C5.47161 -1.65849e-06 -5.96062e-05 5.47167 -6.01962e-05 12.2213Z" fill="#2EADF4"/>
<path d="M15.9408 7.43908C15.9408 8.02601 16.4166 8.5018 17.0035 8.5018C17.5904 8.5018 18.0662 8.02601 18.0662 7.43908C18.0662 6.85216 17.5904 6.37636 17.0035 6.37636C16.4166 6.37636 15.9408 6.85216 15.9408 7.43908Z" fill="white"/>
<path d="M6.37632 7.43908C6.37632 8.02601 6.81247 8.5018 7.35048 8.5018C7.8885 8.5018 8.32465 8.02601 8.32465 7.43908C8.32465 6.85216 7.8885 6.37636 7.35048 6.37636C6.81247 6.37636 6.37632 6.85216 6.37632 7.43908Z" fill="white"/>
<path d="M6.37627 12.7527L18.0662 12.7527C17.8891 14.6749 16.4721 18.4233 12.2212 18.0388C7.97036 17.6544 6.55339 14.3545 6.37627 12.7527Z" fill="white"/>
<path fill-rule="evenodd" clip-rule="evenodd" d="M18.4759 12.379C18.3709 12.2638 18.2222 12.1982 18.0663 12.1982L6.37631 12.1982C6.21865 12.1982 6.06844 12.2653 5.96326 12.3828C5.85808 12.5002 5.80788 12.6569 5.82521 12.8136C6.02097 14.5841 7.57428 18.1753 12.1713 18.591C14.4965 18.8013 16.0892 17.8701 17.1036 16.6081C18.0957 15.3739 18.5225 13.8444 18.6184 12.8035C18.6327 12.6483 18.581 12.4942 18.4759 12.379ZM17.4231 13.3071C17.2573 14.1196 16.8897 15.1042 16.2393 15.9134C15.4382 16.91 14.197 17.6608 12.2712 17.4866C8.86372 17.1784 7.45458 14.8481 7.04564 13.3071L17.4231 13.3071Z" fill="white"/>
<path d="M39.3114 24.929C38.0526 24.929 36.9931 24.7088 36.133 24.2682C35.2728 23.8276 34.6329 23.1772 34.2133 22.3171C33.7937 21.4359 33.5839 20.345 33.5839 19.0442V11.9006H31.0978C30.888 11.9006 30.7097 11.8272 30.5628 11.6803C30.416 11.5335 30.3425 11.3551 30.3425 11.1453V9.32008C30.3425 9.11029 30.416 8.93196 30.5628 8.7851C30.7097 8.63824 30.888 8.56481 31.0978 8.56481H33.5839V3.34084C33.5839 3.13105 33.6468 2.95272 33.7727 2.80586C33.9196 2.659 34.1084 2.58557 34.3392 2.58557H36.8882C37.098 2.58557 37.2763 2.659 37.4232 2.80586C37.5701 2.95272 37.6435 3.13105 37.6435 3.34084V8.56481H41.5772C41.787 8.56481 41.9653 8.63824 42.1122 8.7851C42.259 8.93196 42.3325 9.11029 42.3325 9.32008V11.1453C42.3325 11.3551 42.259 11.5335 42.1122 11.6803C41.9653 11.8272 41.787 11.9006 41.5772 11.9006H37.6435V18.7295C37.6435 19.5897 37.7904 20.261 38.0841 20.7436C38.3988 21.2261 38.9338 21.4674 39.689 21.4674H41.8604C42.0702 21.4674 42.2486 21.5408 42.3954 21.6877C42.5423 21.8345 42.6157 22.0129 42.6157 22.2227V24.1738C42.6157 24.3836 42.5423 24.5619 42.3954 24.7088C42.2486 24.8556 42.0702 24.929 41.8604 24.929H39.3114Z" fill="#2EADF4"/>
<path d="M51.4811 25.2437C50.2013 25.2437 49.0894 24.9605 48.1453 24.3941C47.2222 23.8066 46.5088 22.9884 46.0053 21.9394C45.5018 20.8695 45.2501 19.6107 45.2501 18.1631V9.32008C45.2501 9.11029 45.3235 8.93196 45.4704 8.7851C45.6172 8.63824 45.7955 8.56481 46.0053 8.56481H48.7747C49.0054 8.56481 49.1838 8.63824 49.3097 8.7851C49.4565 8.93196 49.5299 9.11029 49.5299 9.32008V17.9742C49.5299 20.5757 50.6733 21.8765 52.9601 21.8765C54.0511 21.8765 54.9113 21.5303 55.5406 20.838C56.191 20.1457 56.5162 19.1911 56.5162 17.9742V9.32008C56.5162 9.11029 56.5896 8.93196 56.7365 8.7851C56.8834 8.63824 57.0617 8.56481 57.2715 8.56481H60.0408C60.2506 8.56481 60.4289 8.63824 60.5758 8.7851C60.7227 8.93196 60.7961 9.11029 60.7961 9.32008V24.1738C60.7961 24.3836 60.7227 24.5619 60.5758 24.7088C60.4289 24.8556 60.2506 24.929 60.0408 24.929H57.4918C57.261 24.929 57.0722 24.8556 56.9253 24.7088C56.7994 24.5619 56.7365 24.3836 56.7365 24.1738V22.8835C56.17 23.6178 55.4672 24.1948 54.628 24.6144C53.7888 25.0339 52.7398 25.2437 51.4811 25.2437Z" fill="#2EADF4"/>
<path d="M72.3484 24.929C71.0896 24.929 70.0301 24.7088 69.17 24.2682C68.3098 23.8276 67.6699 23.1772 67.2503 22.3171C66.8307 21.4359 66.6209 20.345 66.6209 19.0442V11.9006H64.1348C63.925 11.9006 63.7467 11.8272 63.5998 11.6803C63.453 11.5335 63.3796 11.3551 63.3796 11.1453V9.32008C63.3796 9.11029 63.453 8.93196 63.5998 8.7851C63.7467 8.63824 63.925 8.56481 64.1348 8.56481H66.6209V3.34084C66.6209 3.13105 66.6839 2.95272 66.8097 2.80586C66.9566 2.659 67.1454 2.58557 67.3762 2.58557H69.9252C70.135 2.58557 70.3134 2.659 70.4602 2.80586C70.6071 2.95272 70.6805 3.13105 70.6805 3.34084V8.56481H74.6142C74.824 8.56481 75.0023 8.63824 75.1492 8.7851C75.2961 8.93196 75.3695 9.11029 75.3695 9.32008V11.1453C75.3695 11.3551 75.2961 11.5335 75.1492 11.6803C75.0023 11.8272 74.824 11.9006 74.6142 11.9006H70.6805V18.7295C70.6805 19.5897 70.8274 20.261 71.1211 20.7436C71.4358 21.2261 71.9708 21.4674 72.726 21.4674H74.8974C75.1072 21.4674 75.2856 21.5408 75.4324 21.6877C75.5793 21.8345 75.6527 22.0129 75.6527 22.2227V24.1738C75.6527 24.3836 75.5793 24.5619 75.4324 24.7088C75.2856 24.8556 75.1072 24.929 74.8974 24.929H72.3484Z" fill="#2EADF4"/>
<path d="M79.2312 24.929C79.0214 24.929 78.8431 24.8556 78.6962 24.7088C78.5493 24.5619 78.4759 24.3836 78.4759 24.1738V3.34084C78.4759 3.13105 78.5493 2.95272 78.6962 2.80586C78.8431 2.659 79.0214 2.58557 79.2312 2.58557H81.8432C82.053 2.58557 82.2313 2.659 82.3781 2.80586C82.525 2.95272 82.5984 3.13105 82.5984 3.34084V24.1738C82.5984 24.3836 82.525 24.5619 82.3781 24.7088C82.2313 24.8556 82.053 24.929 81.8432 24.929H79.2312Z" fill="#2EADF4"/>
<path d="M89.731 30.9083C89.5631 30.9083 89.4163 30.8453 89.2904 30.7195C89.1645 30.5936 89.1016 30.4467 89.1016 30.2789C89.1016 30.195 89.1016 30.1111 89.1016 30.0271C89.1226 29.9642 89.1645 29.8803 89.2275 29.7754L91.6821 23.9535L85.6399 9.69772C85.556 9.48792 85.514 9.34106 85.514 9.25714C85.535 9.06833 85.6085 8.91098 85.7343 8.7851C85.8602 8.63824 86.0176 8.56481 86.2064 8.56481H88.7554C89.0072 8.56481 89.196 8.62775 89.3219 8.75363C89.4478 8.87951 89.5422 9.01588 89.6051 9.16273L93.7906 19.4533L98.1019 9.16273C98.1649 8.9949 98.2593 8.85853 98.3851 8.75363C98.511 8.62775 98.6998 8.56481 98.9516 8.56481H101.469C101.637 8.56481 101.784 8.62775 101.91 8.75363C102.057 8.87951 102.13 9.02637 102.13 9.19421C102.13 9.32008 102.088 9.48792 102.004 9.69772L93.0982 30.3104C93.0143 30.4782 92.9094 30.6146 92.7835 30.7195C92.6577 30.8453 92.4688 30.9083 92.2171 30.9083H89.731Z" fill="#2EADF4"/>
</svg>
